<?xml version="1.0" encoding="utf-8"?>
<!-- Generator: Adobe Illustrator 24.0.0, SVG Export Plug-In . SVG Version: 6.00 Build 0)  -->
<svg version="1.1" id="Ebene_1" xmlns="http://www.w3.org/2000/svg" xmlns:xlink="http://www.w3.org/1999/xlink" x="0px" y="0px"
	 viewBox="0 0 250 250" style="enable-background:new 0 0 250 250;" xml:space="preserve">
<g>
	<path d="M215.5,60.9h-36c-3.7-8.5-7-16.1-7.8-17.9c-1.5-3.4-5.9-13.9-21-13.9H99.4c-10.1,0-17.3,4.7-21.2,13.9
		c-0.7,1.7-4.1,9.4-7.8,17.9h-36c-11.8,0-21.3,9.6-21.3,21.3v117.4c0,11.8,9.6,21.3,21.3,21.3h181c11.8,0,21.3-9.6,21.3-21.3V82.2
		C236.8,70.4,227.3,60.9,215.5,60.9z M223.2,199.6c0,4.2-3.5,7.7-7.7,7.7h-181c-4.2,0-7.7-3.4-7.7-7.7V82.2c0-4.2,3.4-7.7,7.7-7.7
		h40.4c2.7,0,5.2-1.6,6.2-4.1c4.4-10.1,8.8-20.1,9.6-22.1c1.3-3.1,2.8-5.6,8.6-5.6h51.4c5.7,0,7.1,2.4,8.5,5.6
		c0.9,2,5.2,12,9.6,22.1c1.1,2.5,3.5,4.1,6.2,4.1h40.4c4.2,0,7.7,3.4,7.7,7.7V199.6z"/>
	<path d="M125,73.1c-34,0-61.7,27.7-61.7,61.7S91,196.6,125,196.6c34,0,61.7-27.7,61.7-61.7S159,73.1,125,73.1z
		 M125,182.9c-26.5,0-48.1-21.6-48.1-48.1S98.5,86.7,125,86.7s48.1,21.6,48.1,48.1S151.5,182.9,125,182.9z"/>
	<path d="M124.1,98.2c-11.4,0-34,7.8-37.7,37.1c-0.5,3.7,2.2,7.1,5.9,7.6c0.3,0,0.6,0.1,0.9,0.1c3.4,0,6.3-2.5,6.8-6
		c3-24.2,22-25.2,24.2-25.2c3.7,0,6.8-3.1,6.8-6.8C130.9,101.3,127.8,98.2,124.1,98.2z"/>
</g>
</svg>
