<?xml version="1.0" encoding="utf-8"?>
<!-- Generator: Adobe Illustrator 24.0.0, SVG Export Plug-In . SVG Version: 6.00 Build 0)  -->
<svg version="1.1" id="Ebene_1" xmlns="http://www.w3.org/2000/svg" xmlns:xlink="http://www.w3.org/1999/xlink" x="0px" y="0px"
	 viewBox="0 0 250 250" style="enable-background:new 0 0 250 250;" xml:space="preserve">
<g>
	<path d="M178.1,209.2H71.9c-3.8,0-6.8,3-6.8,6.8c0,3.8,3.1,6.8,6.8,6.8h106.2c3.8,0,6.8-3,6.8-6.8
		C184.9,212.2,181.9,209.2,178.1,209.2z"/>
	<path d="M120.2,175.6c0.6,0.6,1.4,1.1,2.2,1.5c0.8,0.3,1.7,0.5,2.6,0.5s1.8-0.2,2.6-0.5c0.8-0.3,1.6-0.8,2.2-1.5l53-53
		c2.7-2.7,2.7-7,0-9.6c-2.7-2.7-7-2.7-9.6,0l-41.4,41.4V34c0-3.8-3.1-6.8-6.8-6.8c-3.8,0-6.8,3-6.8,6.8v120.4l-41.6-41.6
		c-2.7-2.7-7-2.7-9.6,0c-2.7,2.7-2.7,7,0,9.6L120.2,175.6z"/>
</g>
</svg>
