<?xml version="1.0" encoding="utf-8"?>
<!-- Generator: Adobe Illustrator 24.0.0, SVG Export Plug-In . SVG Version: 6.00 Build 0)  -->
<svg version="1.1" id="Ebene_1" xmlns="http://www.w3.org/2000/svg" xmlns:xlink="http://www.w3.org/1999/xlink" x="0px" y="0px"
	 viewBox="0 0 250 250" style="enable-background:new 0 0 250 250;" xml:space="preserve">
<g>
	<ellipse transform="matrix(0.7071 -0.7071 0.7071 0.7071 -16.5587 132.3901)" cx="151.5" cy="86.2" rx="14.2" ry="14.2"/>
	<path d="M225.8,39.4H24.2c-3.8,0-6.8,3.1-6.8,6.8v157.6c0,0.1,0,0.1,0,0.2c0,0.1,0,0.2,0,0.3c0,0.1,0,0.3,0,0.4
		c0,0.1,0,0.2,0,0.2c0,0.1,0.1,0.3,0.1,0.4c0,0.1,0,0.1,0.1,0.2c0,0.2,0.1,0.3,0.1,0.5c0,0.1,0,0.1,0.1,0.2c0.1,0.2,0.1,0.3,0.2,0.5
		c0,0,0,0.1,0,0.1c0,0,0,0,0,0.1c0.3,0.5,0.6,1,1,1.5c0.1,0.1,0.1,0.1,0.2,0.2c0.2,0.2,0.3,0.3,0.5,0.5c0,0,0.1,0.1,0.1,0.1
		c0.2,0.2,0.4,0.3,0.7,0.5c0.1,0,0.1,0.1,0.2,0.1c0.2,0.1,0.4,0.2,0.7,0.4c0,0,0.1,0,0.1,0c0.3,0.1,0.5,0.2,0.8,0.3c0,0,0.1,0,0.1,0
		c0.2,0.1,0.5,0.1,0.7,0.2c0.1,0,0.1,0,0.2,0c0.3,0,0.6,0.1,0.9,0.1h201.6c3.8,0,6.8-3,6.8-6.8V46.2
		C232.6,42.5,229.5,39.4,225.8,39.4z M219,53v96.8l-33.2-26.7c-2-1.6-4.8-2-7.2-0.8l-40.7,19.5c0,0,0,0,0,0l-44.3-35.6
		c-2.1-1.6-4.8-2-7.2-0.8L31,131.8V53H219z M31,146.9l57.3-27.4l35.9,28.8L31,193V146.9z M54.2,197l126.4-60.5l38.4,30.9V197H54.2z"
		/>
</g>
</svg>
