<svg xmlns="http://www.w3.org/2000/svg" viewBox="0 0 588 51.08"><defs><style>.cls-1{fill:#1f1e21;}</style></defs><title>B&amp;amp;B</title><g id="Ebene_2" data-name="Ebene 2"><g id="Ebene_3" data-name="Ebene 3"><path class="cls-1" d="M12,50.59c-2.55,0-6.94-.07-12-.15V13.61c3.47,0,8.64-.15,13.53-.15,9.5,0,13.32,3.48,13.32,9,0,3.76-2.19,6.81-6,8.3v.07a8.1,8.1,0,0,1,6.66,8.28C27.49,44.21,24.16,50.59,12,50.59Zm.08-31.74c-1.42,0-3.05.07-4.4.07V29c1.2.07,2.41.07,2.91.07,5,0,8.21-1.77,8.21-5.45C18.77,20.84,17.22,18.85,12.05,18.85ZM10.91,33.94c-.78,0-2.34,0-3.26.07V44.78a24.15,24.15,0,0,0,4.32.28c5.1,0,7.44-2.41,7.44-5.81C19.41,35.36,16,33.94,10.91,33.94Z"/><path class="cls-1" d="M52.63,51.08c-10.7,0-16-5-16-13.46v-24h7.65V36.07c0,6,3.12,8.63,8.86,8.63,6.3,0,8.71-3.54,8.71-9.2V13.61h7.58V36.35C69.42,44.36,64.46,51.08,52.63,51.08Z"/><path class="cls-1" d="M94.23,50.94c-12,0-18.14-6.94-18.14-18.13,0-10.42,6-19.69,19.84-19.69a30.24,30.24,0,0,1,7.93,1l-.7,6.73a25.07,25.07,0,0,0-7.8-1.28c-7.23,0-11.12,5.25-11.12,12.54,0,7.94,4.25,12.11,11.55,12.11a18.08,18.08,0,0,0,7.72-1.7l.64,6.8A29.57,29.57,0,0,1,94.23,50.94Z"/><path class="cls-1" d="M134.51,50.44,120.84,33.16V50.44h-7.65V13.61h7.65V30l13.6-16.43h9.42L128.77,31.32l15.87,19.12Z"/><path class="cls-1" d="M213.53,50.59c-2.55,0-6.94-.07-12-.15V13.61c3.47,0,8.65-.15,13.53-.15,9.5,0,13.32,3.48,13.32,9,0,3.76-2.19,6.81-6,8.3v.07a8.1,8.1,0,0,1,6.66,8.28C229.05,44.21,225.72,50.59,213.53,50.59Zm.07-31.74c-1.41,0-3,.07-4.39.07V29c1.21.07,2.41.07,2.91.07,5,0,8.21-1.77,8.21-5.45C220.33,20.84,218.78,18.85,213.6,18.85Zm-1.13,15.09c-.78,0-2.34,0-3.26.07V44.78a24.15,24.15,0,0,0,4.32.28c5.11,0,7.44-2.41,7.44-5.81C221,35.36,217.57,33.94,212.47,33.94Z"/><path class="cls-1" d="M263.07,50.44l-2.62-7.15H245.08l-2.69,7.15h-7.66l14-36.83h9l13.89,36.83Zm-8.36-23c-.71-1.91-1.41-4.11-1.91-5.81h-.07a51.89,51.89,0,0,1-1.84,5.74l-4,10.41h11.62Z"/><path class="cls-1" d="M293.15,51.08c-10.7,0-16-5-16-13.46v-24h7.67V36.07c0,6,3.11,8.63,8.85,8.63,6.31,0,8.72-3.54,8.72-9.2V13.61h7.58V36.35C309.94,44.36,305,51.08,293.15,51.08Z"/><path class="cls-1" d="M360,50.44l-2.76-19.26c-.5-3.54-.78-6.37-1-8.43h-.07a65.47,65.47,0,0,1-1.84,6.87l-6.95,20.82h-8.07L333,31.1a81.66,81.66,0,0,1-2.26-8.28h-.07c-.14,2.76-.5,5.53-.92,8.78l-2.41,18.84h-7.65l5.67-36.83h9.56l6.87,20.69a60.79,60.79,0,0,1,1.84,6.94h.07a66.27,66.27,0,0,1,1.91-6.74l7.09-20.89h9.85l5.53,36.83Z"/><path class="cls-1" d="M395.62,51c-11.05,0-19.06-6.23-19.06-18.27,0-11,7.66-19.7,20.48-19.7a40.43,40.43,0,0,1,11.55,1.7l-1.35,6.66a27.29,27.29,0,0,0-10.13-2c-6.87,0-12.4,4.33-12.4,12.69,0,7.86,4.75,12.18,11.62,12.18a21.32,21.32,0,0,0,5.39-.7V31.18h7.65V48.53A37.61,37.61,0,0,1,395.62,51Z"/><path class="cls-1" d="M445.3,50.44l-2.62-7.15H427.31l-2.7,7.15H417l14-36.83h9L453.8,50.44Zm-17-41.86a4.24,4.24,0,0,1-4.25-4.33A4.22,4.22,0,0,1,428.3,0a4.29,4.29,0,1,1,0,8.58Zm8.64,18.84c-.71-1.91-1.42-4.11-1.91-5.81H435a51.89,51.89,0,0,1-1.84,5.74l-4,10.41h11.61Zm5.31-18.84a4.29,4.29,0,1,1,4.25-4.33A4.3,4.3,0,0,1,442.25,8.58Z"/><path class="cls-1" d="M481.2,50.44,470.64,35.29h-.35V50.44h-7.66V13.61c2.69-.15,7.51-.22,12.05-.22,8.78,0,13.88,3.41,13.88,10.21,0,6-4.18,9.63-10.06,10.55.85,1,1.85,2.41,3,4l9.14,12.32Zm-7.65-31.16a24.93,24.93,0,0,0-3.26.13V30c1.06.07,2.33.14,3.54.14,4,0,6.65-2.33,6.65-5.8S477.87,19.28,473.55,19.28Z"/><path class="cls-1" d="M514.91,20.12V50.44h-7.65V20.12h-10.2V13.61h28.05v6.51Z"/><path class="cls-1" d="M534.69,50.44V13.61h21.68v6h-14v9h13.39v5.81H542.34v9.92h14v6.08Z"/><path class="cls-1" d="M567.67,50.44V13.61h7.65V43.78H588v6.66Z"/><path class="cls-1" d="M169.35,20.81H158.83c-.16,4.72,1.71,6.69,5.23,6.69a10.58,10.58,0,0,0,4.57-1l.22,2a13.59,13.59,0,0,1-5.2.95c-4.75,0-7.29-2.56-7.29-8.08,0-4.72,2.54-8.24,6.91-8.24s6.15,3,6.15,6.5A7.72,7.72,0,0,1,169.35,20.81ZM163.14,15c-2.22,0-3.8,1.62-4.18,4.09h8A3.65,3.65,0,0,0,163.14,15Z"/><path class="cls-1" d="M178.93,29.43c-3.17,0-4.09-1.39-4.09-4.66V15.3h-3.42V13.43h3.42V8.2l2.38-.67v5.9h4.63V15.3h-4.63v8.49c0,2.82.51,3.55,2.37,3.55a8.32,8.32,0,0,0,2.26-.28v2.06A14.77,14.77,0,0,1,178.93,29.43Z"/></g></g></svg>